<mxfile host="app.diagrams.net" modified="2022-06-24T21:02:28.354Z" agent="5.0 (Macintosh; Intel Mac OS X 10_15_7) AppleWebKit/537.36 (KHTML, like Gecko) Chrome/102.0.0.0 Safari/537.36" etag="sKLhRXOLDrkKkDtWZ3rI" version="16.0.0" type="github">
  <diagram name="Page-1" id="38b20595-45e3-9b7f-d5ca-b57f44c5b66d">
    <mxGraphModel dx="1735" dy="809" grid="1" gridSize="10" guides="1" tooltips="1" connect="1" arrows="1" fold="1" page="1" pageScale="1" pageWidth="1169" pageHeight="827" background="#ffffff" math="0" shadow="0">
      <root>
        <mxCell id="0" />
        <mxCell id="1" parent="0" />
        <mxCell id="hN5Dp_MHmyaqK9XTyMVl-1" value="" style="verticalLabelPosition=bottom;html=1;verticalAlign=top;align=center;shape=mxgraph.floorplan.room;fillColor=#000000;" parent="1" vertex="1">
          <mxGeometry x="150" y="30" width="900" height="780" as="geometry" />
        </mxCell>
        <mxCell id="hN5Dp_MHmyaqK9XTyMVl-2" value="" style="line;strokeWidth=4;html=1;perimeter=backbonePerimeter;points=[];outlineConnect=0;" parent="1" vertex="1">
          <mxGeometry x="640" y="480" width="400" height="10" as="geometry" />
        </mxCell>
        <mxCell id="hN5Dp_MHmyaqK9XTyMVl-3" value="" style="line;strokeWidth=4;direction=south;html=1;perimeter=backbonePerimeter;points=[];outlineConnect=0;" parent="1" vertex="1">
          <mxGeometry x="630" y="480" width="10" height="320" as="geometry" />
        </mxCell>
        <mxCell id="hN5Dp_MHmyaqK9XTyMVl-4" value="" style="line;strokeWidth=4;html=1;perimeter=backbonePerimeter;points=[];outlineConnect=0;" parent="1" vertex="1">
          <mxGeometry x="95" y="455" width="535" height="10" as="geometry" />
        </mxCell>
        <mxCell id="hN5Dp_MHmyaqK9XTyMVl-5" value="5.1&lt;br&gt;" style="shape=dimension;direction=north;whiteSpace=wrap;html=1;align=right;points=[];verticalAlign=middle;labelBackgroundColor=#ffffff" parent="1" vertex="1">
          <mxGeometry x="600" y="40" width="40" height="400" as="geometry" />
        </mxCell>
        <mxCell id="hN5Dp_MHmyaqK9XTyMVl-6" value="5.7" style="shape=dimension;whiteSpace=wrap;html=1;align=center;points=[];verticalAlign=bottom;spacingBottom=-5;labelBackgroundColor=#ffffff" parent="1" vertex="1">
          <mxGeometry x="620" y="370" width="420" height="40" as="geometry" />
        </mxCell>
        <mxCell id="hN5Dp_MHmyaqK9XTyMVl-7" value="5.9&lt;br&gt;" style="shape=dimension;direction=west;whiteSpace=wrap;html=1;align=center;points=[];verticalAlign=top;spacingTop=-8;labelBackgroundColor=#ffffff" parent="1" vertex="1">
          <mxGeometry x="160" y="660" width="470" height="40" as="geometry" />
        </mxCell>
        <mxCell id="hN5Dp_MHmyaqK9XTyMVl-8" value="" style="shape=ext;double=1;rounded=0;whiteSpace=wrap;html=1;" parent="1" vertex="1">
          <mxGeometry x="165" y="480" width="230" height="160" as="geometry" />
        </mxCell>
        <mxCell id="hN5Dp_MHmyaqK9XTyMVl-10" value="9.5" style="shape=dimension;direction=south;whiteSpace=wrap;html=1;align=left;points=[];verticalAlign=middle;labelBackgroundColor=#ffffff" parent="1" vertex="1">
          <mxGeometry x="260" y="40" width="40" height="770" as="geometry" />
        </mxCell>
        <mxCell id="hN5Dp_MHmyaqK9XTyMVl-12" value="6" style="shape=dimension;whiteSpace=wrap;html=1;align=center;points=[];verticalAlign=bottom;spacingBottom=-5;labelBackgroundColor=#ffffff" parent="1" vertex="1">
          <mxGeometry x="160" y="300" width="470" height="40" as="geometry" />
        </mxCell>
        <mxCell id="hN5Dp_MHmyaqK9XTyMVl-13" value="" style="shape=ext;double=1;rounded=0;whiteSpace=wrap;html=1;" parent="1" vertex="1">
          <mxGeometry x="340" y="40" width="260" height="260" as="geometry" />
        </mxCell>
        <mxCell id="hN5Dp_MHmyaqK9XTyMVl-14" value="3.2" style="shape=dimension;direction=north;whiteSpace=wrap;html=1;align=right;points=[];verticalAlign=middle;labelBackgroundColor=#ffffff" parent="1" vertex="1">
          <mxGeometry x="370" y="40" width="20" height="260" as="geometry" />
        </mxCell>
        <mxCell id="hN5Dp_MHmyaqK9XTyMVl-16" value="3.2" style="shape=dimension;direction=west;whiteSpace=wrap;html=1;align=center;points=[];verticalAlign=top;spacingTop=-8;labelBackgroundColor=#ffffff" parent="1" vertex="1">
          <mxGeometry x="340" y="310" width="260" height="20" as="geometry" />
        </mxCell>
        <mxCell id="hN5Dp_MHmyaqK9XTyMVl-21" value="13 Meters" style="shape=dimension;direction=west;whiteSpace=wrap;html=1;align=center;points=[];verticalAlign=top;spacingTop=-8;labelBackgroundColor=#ffffff" parent="1" vertex="1">
          <mxGeometry x="40" y="20" width="1040" height="30" as="geometry" />
        </mxCell>
        <mxCell id="hN5Dp_MHmyaqK9XTyMVl-22" value="4.1" style="shape=dimension;direction=south;whiteSpace=wrap;html=1;align=left;points=[];verticalAlign=middle;labelBackgroundColor=#ffffff" parent="1" vertex="1">
          <mxGeometry x="615" y="480" width="40" height="320" as="geometry" />
        </mxCell>
        <mxCell id="hN5Dp_MHmyaqK9XTyMVl-24" value="9.5&lt;br&gt;" style="shape=dimension;direction=north;whiteSpace=wrap;html=1;align=right;points=[];verticalAlign=middle;labelBackgroundColor=#ffffff" parent="1" vertex="1">
          <mxGeometry x="1100" y="40" width="40" height="760" as="geometry" />
        </mxCell>
        <mxCell id="hN5Dp_MHmyaqK9XTyMVl-25" value="0.3" style="shape=dimension;direction=south;whiteSpace=wrap;html=1;align=left;points=[];verticalAlign=middle;labelBackgroundColor=#ffffff" parent="1" vertex="1">
          <mxGeometry x="570" y="440" width="40" height="40" as="geometry" />
        </mxCell>
        <mxCell id="hN5Dp_MHmyaqK9XTyMVl-26" value="5" style="shape=dimension;direction=west;whiteSpace=wrap;html=1;align=center;points=[];verticalAlign=top;spacingTop=-8;labelBackgroundColor=#ffffff" parent="1" vertex="1">
          <mxGeometry x="640" y="520" width="400" height="40" as="geometry" />
        </mxCell>
        <mxCell id="hN5Dp_MHmyaqK9XTyMVl-28" value="11&lt;br&gt;" style="shape=dimension;direction=west;whiteSpace=wrap;html=1;align=center;points=[];verticalAlign=top;spacingTop=-8;labelBackgroundColor=#ffffff" parent="1" vertex="1">
          <mxGeometry x="160" y="230" width="880" height="40" as="geometry" />
        </mxCell>
        <mxCell id="hN5Dp_MHmyaqK9XTyMVl-29" value="2.9" style="shape=dimension;whiteSpace=wrap;html=1;align=center;points=[];verticalAlign=bottom;spacingBottom=-5;labelBackgroundColor=#ffffff" parent="1" vertex="1">
          <mxGeometry x="160" y="430" width="240" height="40" as="geometry" />
        </mxCell>
        <mxCell id="hN5Dp_MHmyaqK9XTyMVl-30" value="2.1" style="shape=dimension;direction=south;whiteSpace=wrap;html=1;align=left;points=[];verticalAlign=middle;labelBackgroundColor=#ffffff" parent="1" vertex="1">
          <mxGeometry x="400" y="640" width="40" height="160" as="geometry" />
        </mxCell>
        <mxCell id="hN5Dp_MHmyaqK9XTyMVl-31" value="4" style="shape=dimension;direction=south;whiteSpace=wrap;html=1;align=left;points=[];verticalAlign=middle;labelBackgroundColor=#ffffff" parent="1" vertex="1">
          <mxGeometry x="430" y="480" width="40" height="320" as="geometry" />
        </mxCell>
        <mxCell id="uf1Sf2Dz9ZVaFd2XEjap-1" value="" style="line;strokeWidth=4;html=1;perimeter=backbonePerimeter;points=[];outlineConnect=0;" vertex="1" parent="1">
          <mxGeometry x="105" y="790" width="535" height="10" as="geometry" />
        </mxCell>
        <mxCell id="uf1Sf2Dz9ZVaFd2XEjap-2" value="2.5" style="shape=dimension;direction=west;whiteSpace=wrap;html=1;align=center;points=[];verticalAlign=top;spacingTop=-8;labelBackgroundColor=#ffffff" vertex="1" parent="1">
          <mxGeometry x="160" y="310" width="180" height="20" as="geometry" />
        </mxCell>
      </root>
    </mxGraphModel>
  </diagram>
</mxfile>
